<svg xmlns="http://www.w3.org/2000/svg" width="61" height="61" viewBox="0 0 61 61">
    <g fill="none" fill-rule="evenodd">
        <circle cx="30.5" cy="30.5" r="30.5" fill="#474F78"/>
        <path fill="#FFF" d="M44.87 38.167c-.07-.262-.237-.482-.473-.62l-3.909-2.256 3.381-1.861c.234-.13.405-.344.48-.603.076-.26.045-.532-.084-.766-.128-.235-.342-.407-.602-.482-.26-.076-.533-.045-.767.084l-4.448 2.45-5.483-3.164 5.71-3.294 4.221 2.326c.231.126.508.159.767.084.26-.075.474-.247.602-.481.13-.235.16-.508.084-.767-.075-.259-.245-.473-.48-.603l-3.155-1.737 3.682-2.125c.234-.134.4-.352.468-.612.07-.261.033-.533-.102-.765-.135-.233-.353-.399-.613-.469-.259-.069-.529-.033-.766.103L39.59 24.8l.08-3.862c.002-.271-.098-.526-.282-.719-.188-.195-.439-.304-.709-.308h-.014c-.265 0-.515.099-.704.281-.196.186-.305.437-.309.707l-.105 5.08-5.585 3.223v-6.585l4.24-2.559c.23-.136.393-.355.46-.619.063-.262.021-.535-.119-.766-.137-.23-.356-.393-.617-.458-.234-.059-.479-.033-.694.076v-.005l-3.27 1.975v-4.249c0-.558-.454-1.012-1.012-1.012s-1.012.454-1.012 1.012v4.245l-3.187-1.924c-.473-.289-1.094-.137-1.387.339-.288.474-.135 1.095.341 1.386l4.233 2.555v6.589l-5.578-3.22-.104-5.083c-.004-.27-.114-.522-.309-.707-.188-.181-.435-.282-.683-.282l-.037.001c-.267.004-.516.111-.703.303-.188.194-.289.452-.285.725l.08 3.865-3.802-2.194c-.229-.135-.498-.175-.758-.107-.262.068-.482.235-.619.471-.137.23-.175.5-.108.759.068.261.235.481.472.619l3.692 2.131-3.158 1.738c-.235.13-.406.344-.48.603-.077.259-.046.531.083.767.177.322.516.521.885.521.168 0 .335-.043.485-.124l4.225-2.327 5.7 3.289-5.48 3.161-4.445-2.448c-.489-.267-1.1-.089-1.37.398-.128.234-.159.507-.084.766.076.259.246.473.481.603l3.378 1.859-3.912 2.258c-.234.134-.4.351-.468.612-.07.259-.034.531.103.765.134.234.351.4.612.469.261.069.536.031.765-.103l3.797-2.192-.074 3.607c-.004.271.096.526.281.72.186.195.438.305.708.308h.015c.265 0 .515-.099.704-.281.195-.185.305-.437.31-.707l.098-4.826 5.583-3.222v6.327l-4.232 2.555c-.232.137-.394.356-.459.618s-.024.535.117.766c.137.232.357.394.617.459.263.067.54.023.77-.117l3.187-1.925v4.514c0 .559.454 1.013 1.012 1.013s1.012-.454 1.012-1.013v-4.518l3.194 1.929c.23.139.511.181.76.119.263-.064.484-.226.627-.459.14-.231.182-.503.118-.762-.063-.261-.227-.482-.459-.623l-4.24-2.56v-6.323l5.59 3.226.1 4.821c.004.268.112.517.302.702.19.185.442.287.71.287h.016c.27-.004.522-.113.708-.308.184-.193.284-.449.281-.72l-.074-3.602 3.788 2.186c.228.135.5.174.758.107.262-.068.482-.235.62-.471.136-.229.174-.498.108-.758"/>
    </g>
</svg>
