<svg xmlns="http://www.w3.org/2000/svg" width="236" height="222" viewBox="0 0 236 222">
    <g fill="none" fill-rule="evenodd">
        <path fill="#FFF" d="M73 14.248C73 4.718 112.942-.032 152.661 0H153c-40.317 0-73 10.477-73 16s32.683 10 73 10 73-4.477 73-10C226 10.542 194.077.244 154.412.004c38.854.17 76.93 4.917 76.588 14.244C227.622 106.33 223 190 223 190c0 2.688 1.725 6.338 0 8-10.244 9.87-40.774 20.248-71 20.248-35.086 0-58.315-10.432-71-20.248-2.264-1.752 0-6.576 0-8 0-13.531-8-150.149-8-175.752z" transform="translate(2 2)"/>
        <g transform="translate(2 2)">
            <ellipse cx="154" cy="16" stroke="#474F78" rx="73" ry="10"/>
            <path stroke="#474F78" stroke-width="3" d="M81 30c19.353 6.234 44.086 9.35 74.199 9.35s53.696-3.116 70.749-9.35"/>
            <path stroke="#474F78" stroke-width="3" d="M153 218.248c30.226 0 60.756-10.377 71-20.248 1.725-1.662 0-5.312 0-8 0 0 4.622-83.669 8-175.752.697-18.997-158-18.997-158 0C74 39.85 82 176.469 82 190c0 1.424-2.264 6.248 0 8 12.685 9.816 35.914 20.248 71 20.248z"/>
            <g>
                <path fill="#FFF" stroke="#474F78" stroke-width="3" d="M84 9c44.998 0 81.833 4.91 84 11v8c0 6.292-36.86 10.91-82.61 11.012l-1.39.002C38.072 39.014.742 34.267 0 28v-8C2.148 13.97 38.271 9.097 82.653 9.001L84 9z" transform="rotate(-71 142.607 100.936)"/>
                <path stroke="#474F78" d="M84 29c46.392 0 84-3.477 84-9S130.392 9 84 9 0 14.477 0 20s37.608 9 84 9z" transform="rotate(-71 142.607 100.936)"/>
                <path fill="#474F78" d="M84 24c17.12 0 31-1.739 31-4.5S101.12 14 84 14c-17.12 0-31 2.739-31 5.5S66.88 24 84 24z" transform="rotate(-71 142.607 100.936)"/>
                <path stroke="#474F78" stroke-width="3" d="M68.5 0h30c4.97 0 9 4.03 9 9v11h0-48V9c0-4.97 4.03-9 9-9z" transform="rotate(-71 142.607 100.936)"/>
            </g>
            <path stroke="#474F78" d="M143.998 50.2c3.647.1 7.38.15 11.2.15 2.652 0 5.252-.023 7.802-.072V209.18c-2.55.114-5.15.17-7.801.17-3.82 0-7.553-.117-11.2-.353V50.2zM192.939 48.333l-1.835 156.772c-5.063 1.338-10.408 2.36-16.035 3.066l1.853-158.426c5.627-.333 10.966-.804 16.017-1.412zM223.84 41.743l-5.124 151.125c-4.104 2.77-8.519 5.191-13.245 7.263l5.246-154.766c4.718-1.043 9.092-2.25 13.123-3.622zM114.06 48.012c5.109.644 10.448 1.155 16.016 1.533l1.85 158.194c-5.572-.814-10.918-1.935-16.039-3.364L114.06 48.012zM83.158 41.675c4.135 1.258 8.506 2.378 13.113 3.362l5.23 154.258c-4.633-2.011-9.045-4.325-13.235-6.94l-5.108-150.68z"/>
        </g>
    </g>
</svg>
