<?xml version="1.0" encoding="UTF-8"?>
<svg width="28px" height="18px" viewBox="0 0 28 18" version="1.1" xmlns="http://www.w3.org/2000/svg" xmlns:xlink="http://www.w3.org/1999/xlink">
    <title>Combined Shape</title>
    <g id="Page-1" stroke="none" stroke-width="1" fill="none" fill-rule="evenodd">
        <g id="Artboard" transform="translate(-13.000000, -6.000000)" fill="#323755" fill-rule="nonzero">
            <path d="M32.6128994,6.20970461 L32.7071068,6.29289322 L40.7071068,14.2928932 C41.0675907,14.6533772 41.0953203,15.2206082 40.7902954,15.6128994 L40.7071068,15.7071068 L32.7071068,23.7071068 C32.3165825,24.0976311 31.6834175,24.0976311 31.2928932,23.7071068 C30.9324093,23.3466228 30.9046797,22.7793918 31.2097046,22.3871006 L31.2928932,22.2928932 L37.585,16 L14,16 C13.4477153,16 13,15.5522847 13,15 C13,14.4871642 13.3860402,14.0644928 13.8833789,14.0067277 L14,14 L37.585,14 L31.2928932,7.70710678 C30.9324093,7.34662282 30.9046797,6.77939176 31.2097046,6.38710056 L31.2928932,6.29289322 C31.6533772,5.93240926 32.2206082,5.90467972 32.6128994,6.20970461 Z" id="Combined-Shape"></path>
        </g>
    </g>
</svg>