<svg xmlns="http://www.w3.org/2000/svg" width="62" height="62" viewBox="0 0 62 62">
    <g fill="none" fill-rule="evenodd" transform="translate(1 1)">
        <circle cx="30" cy="30" r="30" stroke="#323755" stroke-width="2"/>
        <path fill="#323755" d="M39.9 20.1c.39.391.39 1.024 0 1.415l-8.486 8.484 8.485 8.486c.391.39.391 1.024 0 1.414-.39.391-1.023.391-1.414 0L30 31.413l-8.485 8.486c-.39.391-1.024.391-1.414 0-.391-.39-.391-1.023 0-1.414L28.586 30 20.1 21.515c-.391-.39-.391-1.024 0-1.414.39-.391 1.023-.391 1.414 0L30 28.584l8.485-8.483c.39-.391 1.024-.391 1.414 0z"/>
    </g>
</svg>
