<svg xmlns="http://www.w3.org/2000/svg" xmlns:xlink="http://www.w3.org/1999/xlink" width="154" height="57" viewBox="0 0 154 57">
    <defs>
        <path id="5afx5qtf5a" d="M0.045 0.04L20.313 0.04 20.313 22.171 0.045 22.171z"/>
        <path id="suia706i7c" d="M0 0.031L41.317 0.031 41.317 37.462 0 37.462z"/>
    </defs>
    <g fill="none" fill-rule="evenodd">
        <path fill="#99B811" d="M30.06 42.41c-2.14 2.858-5.555 4.708-9.401 4.708-5.233 0-9.665-3.424-11.178-8.152.978-.273 1.963-.426 2.95-.484.521 1.311 1.312 2.516 2.343 3.547.22.22.508.33.796.33.287 0 .575-.11.796-.33.438-.44.438-1.152 0-1.59-.55-.55-1.012-1.162-1.38-1.82v-.001c-.02-.032-.037-.064-.055-.097 5.332.452 10.61 3.054 15.128 3.888"/>
        <path fill="#0F6FB7" d="M11.701 35.165c.063 1.151.31 2.267.73 3.317-.987.058-1.972.211-2.95.483-.363-1.128-.557-2.332-.557-3.58 0-.134.002-.267.005-.399.94.098 1.865.157 2.772.18M32.394 35.385c0 2.634-.868 5.065-2.335 7.024-4.519-.834-9.796-3.436-15.128-3.888-.562-1.033-.895-2.177-.976-3.37 7.003-.252 12.974-2.427 17.825-3.824.39 1.26.614 2.6.614 4.058"/>
        <path fill="#683C10" d="M31.78 31.326c-4.85 1.398-10.822 3.573-17.825 3.826-.013-.188-.02-.378-.02-.568 0-.621-.502-1.125-1.124-1.125-.621 0-1.125.504-1.125 1.125 0 .194.005.389.015.581-.907-.022-1.831-.08-2.772-.179.076-2.674.907-4.95 2.115-7.086 6.093-.84 13.203-.52 20.028 1.565.273.603.513 1.222.708 1.86"/>
        <path fill="#F9B432" d="M31.072 29.465c-6.825-2.086-13.935-2.405-20.028-1.565 1.787-3.154 4.397-6.003 6.618-9.369 1.587-2.409 1.5-5.548-.224-7.861-1.187-1.593-2.19-3.162-2.19-5.259C15.247 2.422 17.67 0 20.657 0c2.99 0 5.412 2.422 5.412 5.411 0 2.097-1.004 3.666-2.19 5.259-1.724 2.313-1.812 5.452-.224 7.861 2.58 3.913 5.689 7.126 7.416 10.934"/>
        <g transform="translate(132.863 24.56)">
            <mask id="1sfjc1nx4b" fill="#fff">
                <use xlink:href="#5afx5qtf5a"/>
            </mask>
            <path fill="#0C5A45" d="M11.11 22.171c-6.1 0-11.065-4.964-11.065-11.065C.045 5.004 5.01.04 11.111.04c4.403 0 7.153 2.106 9.16 3.645l-2.736 3.572C15.711 5.86 13.988 4.54 11.111 4.54c-3.62 0-6.566 2.945-6.566 6.566 0 3.62 2.946 6.565 6.566 6.565 2.888 0 4.628-1.33 6.47-2.737l2.732 3.576c-2.022 1.545-4.792 3.661-9.202 3.661" mask="url(#1sfjc1nx4b)"/>
        </g>
        <g transform="translate(0 18.598)">
            <mask id="qhdbgs7dod" fill="#fff">
                <use xlink:href="#suia706i7c"/>
            </mask>
            <path fill="#0C5A45" d="M32.432.488c-.975.74-1.184 2.126-.461 3.113 2.568 3.511 4.866 7.394 4.846 13.258-.03 8.91-7.303 16.134-16.213 16.103C11.694 32.932 4.47 25.66 4.5 16.75c.02-5.84 2.322-9.674 4.894-13.132.73-.982.533-2.37-.436-3.117-.999-.77-2.433-.568-3.184.445C2.939 4.766.024 9.561 0 16.735c-.038 11.39 9.198 20.689 20.589 20.728 11.39.038 20.69-9.198 20.728-20.589C41.34 9.68 38.438 4.83 35.612.96c-.744-1.018-2.175-1.233-3.18-.471" mask="url(#qhdbgs7dod)"/>
        </g>
        <path fill="#F9B432" d="M15.08 38.627v.001c-.032-.003-.063-.007-.095-.009v-.001l.095.009"/>
        <path fill="#0C5A45" d="M65.279 28.832l-3.08 3.015c-1.102-2.301-2.884-3.436-5.77-3.436-2.69 0-4.051 1.102-4.051 2.626 0 1.426 1.167 2.204 4.927 2.884 5.77 1.07 7.942 2.853 7.942 6.419 0 4.02-3.663 6.418-8.785 6.418-4.862 0-7.617-1.394-9.433-3.987l2.658-3.177c1.686 2.788 3.728 3.533 6.613 3.533 2.755 0 4.246-.907 4.246-2.528 0-1.167-1.134-1.848-4.667-2.56-5.965-1.2-8.234-3.016-8.234-6.581 0-3.793 3.21-6.742 8.752-6.742 3.987 0 6.71 1.264 8.882 4.116M73.836 34.83h3.878c2.594 0 3.793-.973 3.793-3.113s-1.2-3.112-3.793-3.112h-3.878v6.224zm3.457 3.403h-3.457v8.2h-4.408V25.04h8.87c4.862 0 7.78 2.399 7.78 6.613 0 3.079-1.589 5.186-4.377 6.093l5.64 8.688h-5.024l-5.024-8.201zM98.978 28.638h-.065l-2.982 9.27h6.03l-2.983-9.27zm4.084 12.577H94.83l-1.75 5.219h-4.57L96.32 25.04h5.349l7.812 21.394h-4.636l-1.783-5.22zM129.804 38.006c0 5.834-3.176 8.752-9.14 8.752-5.965 0-9.141-2.918-9.141-8.752V25.04h4.473V37.81c0 3.598 1.523 5.171 4.667 5.171 3.145 0 4.636-1.573 4.636-5.17V25.04h4.505v12.966z"/>
    </g>
</svg>
