<svg xmlns="http://www.w3.org/2000/svg" width="230" height="230" viewBox="0 0 230 230">
    <g fill="none" fill-rule="evenodd" transform="translate(2 2)">
        <circle cx="113" cy="113" r="113" stroke="#474F78" stroke-width="3"/>
        <circle cx="113" cy="113" r="88" stroke="#474F78"/>
        <circle cx="109" cy="113" r="10" fill="#474F78" stroke="#474F78" stroke-width="2.4"/>
        <path stroke="#474F78" stroke-width="3" d="M115.261 135.522l11.674 23.348c1.729 3.457.327 7.662-3.13 9.391-.973.486-2.045.739-3.131.739H97.326c-3.866 0-7-3.134-7-7 0-1.087.253-2.159.74-3.13l11.673-23.348c1.729-3.458 5.934-4.86 9.391-3.13 1.355.677 2.454 1.775 3.131 3.13zM131.734 118.443l26.08 1.109c3.862.164 6.86 3.428 6.696 7.291-.047 1.086-.345 2.146-.872 3.096l-11.319 20.42c-1.874 3.382-6.135 4.603-9.516 2.73-.95-.528-1.765-1.269-2.38-2.165l-14.76-21.53c-2.186-3.188-1.374-7.545 1.815-9.73 1.25-.857 2.742-1.285 4.256-1.221zM128.375 96.381l14.382-21.783c2.13-3.226 6.473-4.115 9.699-1.985.907.599 1.662 1.4 2.205 2.342l11.674 20.22c1.933 3.347.786 7.628-2.562 9.561-.941.544-1.996.86-3.08.926l-26.057 1.564c-3.86.231-7.176-2.71-7.407-6.568-.09-1.512.311-3.013 1.146-4.277zM102.739 90.478L91.065 67.13c-1.729-3.457-.327-7.662 3.13-9.391.973-.486 2.045-.739 3.131-.739h23.348c3.866 0 7 3.134 7 7 0 1.087-.253 2.159-.74 3.13l-11.673 23.348c-1.729 3.458-5.934 4.86-9.391 3.13-1.355-.677-2.454-1.775-3.131-3.13zM86.917 106.978l-26.056-1.564c-3.86-.232-6.8-3.548-6.568-7.407.065-1.085.382-2.14.925-3.08l11.674-20.22c1.933-3.348 6.214-4.496 9.562-2.563.941.544 1.743 1.299 2.342 2.206l14.382 21.783c2.13 3.226 1.242 7.569-1.984 9.699-1.264.834-2.765 1.236-4.277 1.146zM93.176 129.43l-14.382 21.784c-2.13 3.226-6.473 4.115-9.699 1.984-.907-.598-1.662-1.4-2.205-2.341l-11.674-20.22c-1.933-3.348-.786-7.629 2.562-9.562.941-.543 1.996-.86 3.08-.925l26.057-1.564c3.86-.232 7.175 2.709 7.407 6.568.09 1.512-.311 3.012-1.146 4.276z"/>
        <circle fill="#FC8E0B" style="mix-blend-mode:multiply" cx="111.5" cy="72.5" r="1.5"/>
    </g>
</svg>
