<?xml version="1.0" encoding="UTF-8"?>
<svg width="400px" height="400px" viewBox="0 0 400 400" version="1.1" xmlns="http://www.w3.org/2000/svg" xmlns:xlink="http://www.w3.org/1999/xlink">
    <title>img-slide-3</title>
    <defs>
        <polygon id="path-1" points="0.797867775 0.78204912 266.991127 0.78204912 266.991127 201.999791 0.797867775 201.999791"></polygon>
    </defs>
    <g id="Page-1" stroke="none" stroke-width="1" fill="none" fill-rule="evenodd">
        <g id="img-slide-3">
            <rect id="Rectangle-Copy-2" fill="#FFFDFD" opacity="0" x="0" y="0" width="400" height="400"></rect>
            <g id="Group-3" transform="translate(67.000000, 120.000000)">
                <g id="Group-41">
                    <mask id="mask-2" fill="white">
                        <use xlink:href="#path-1"></use>
                    </mask>
                    <g id="Clip-40"></g>
                    <path d="M263.147618,83.0685408 C263.147618,76.0163168 263.159717,68.9657088 263.144391,61.9134848 C263.116158,48.4691728 255.667584,37.9175008 243.02098,33.7255968 C216.944518,25.0791888 190.868056,16.4287408 164.727868,7.9754448 C147.620509,2.4438768 130.727717,3.5185168 115.023116,12.3063248 C82.8709921,30.2972528 50.9761885,48.7511648 19.0587988,67.1614448 C9.44921873,72.7051328 4.72952991,81.4040608 4.68274441,92.4954768 C4.60611299,110.807989 4.68839094,129.121309 4.62137878,147.434629 C4.6149861,149.284949 5.12317341,150.181829 6.92360846,150.862165 C47.7286296,166.286077 88.5110647,181.768165 129.274947,197.300349 C131.035856,197.970989 132.318424,197.907965 133.899451,196.826053 C176.297599,167.823701 218.723173,138.860133 261.178593,109.942621 C262.662016,108.931005 263.206503,107.883837 263.186875,106.116741 C263.095992,98.4358928 263.147618,90.7518128 263.147618,83.0685408 M0.860046526,119.866477 C0.860853172,110.923533 0.861659819,101.980589 0.860046526,93.0376448 C0.857626586,79.9084528 6.5081855,69.9433888 17.8399559,63.4228288 C49.1281613,45.4181648 80.4147535,27.4078448 111.837669,9.6423488 C128.782892,0.0618928 146.838868,-1.7415632 165.368346,4.1948128 C191.721488,12.6359888 217.980252,21.3801648 244.23821,30.1194928 C258.543279,34.8794208 266.92111,46.7481328 266.943696,61.8674288 C266.967089,77.2283168 266.91627,92.5900128 266.991376,107.950901 C266.999355,109.835965 266.455675,110.961509 264.865775,112.043421 C221.38188,141.655005 177.928639,171.311837 134.515729,201.027653 C132.803219,202.199253 131.449666,202.236421 129.622611,201.540733 C87.5979408,185.533445 45.5611704,169.560901 3.49939396,153.650573 C1.54166284,152.910445 0.768088822,152.058005 0.797867775,149.851357 C0.939097885,139.858013 0.860046526,129.862245 0.860046526,119.866477" id="Fill-39" fill="#4D557C" mask="url(#mask-2)"></path>
                </g>
                <path d="M81.0148876,133.033407 C81.0148876,125.682145 81.0261934,118.330883 81.0116573,110.978814 C80.9979288,104.325906 83.7840045,99.2140535 89.5338185,95.8529237 C106.763072,85.779211 124.03028,75.7716243 141.260341,65.7003309 C142.652571,64.88666 143.867138,64.8100508 145.410382,65.3253488 C159.050039,69.8767444 172.730882,74.303146 186.374577,78.8448646 C192.807585,80.9866979 195.867423,85.3219748 195.882766,92.0910065 C195.916684,106.372583 195.872268,120.655772 196,134.937348 C196.009553,136.092132 195.507252,136.383247 194.867666,136.819516 C176.120203,149.601971 157.380009,162.395715 138.598629,175.126559 C135.439461,177.268392 131.842597,177.486123 128.315183,176.224893 C113.114516,170.785637 97.9598802,165.218161 82.7527527,159.795032 C80.9979288,159.168449 80.9963137,158.080598 81,156.66373 C81.0294236,148.786687 81.01408,140.91045 81.0148876,133.033407" id="Fill-44" fill="#FEC81F"></path>
                <path d="M73.7981422,157 C63.9847138,153.425036 54.5238443,149.98386 45.0662092,146.531331 C41.3133976,145.161834 37.6163809,143.624494 33.8134348,142.420407 C28.0770751,140.603329 25.3407006,136.28321 25.2169815,130.804409 C24.893533,116.563744 24.9776296,102.309295 25.1716987,88.062954 C25.237197,83.2571451 27.7148128,79.2946028 31.8897247,76.8677788 C49.3535195,66.7145244 66.8965592,56.7015441 84.3959333,46.609913 C85.4859549,45.9815172 86.5169471,45.8201614 87.6983428,46.2126047 C102.948941,51.2827453 118.203582,56.3415341 134,61.5835713 C128.01135,65.0936686 122.417308,68.3799759 116.816797,71.6541207 C106.823046,77.4977962 96.8341466,83.3495801 86.8274576,89.1697414 C78.0385524,94.2804236 73.7156628,101.870634 73.7779267,112.087944 C73.8612147,125.809676 73.7981422,139.531408 73.7981422,153.253139 L73.7981422,157 Z" id="Fill-46" fill="#FEC820"></path>
                <path d="M203.049168,132 L203.049168,107.304796 C203.049168,102.789318 203.055657,98.2746466 203.047545,93.7591687 C203.028888,82.753145 198.03851,75.8488753 187.473704,72.3463355 C175.675094,68.4349106 163.856204,64.5855847 152,60.6951283 C152.19955,59.4829898 153.278419,59.3620179 153.999558,58.9418422 C167.203943,51.2552875 180.441586,43.6251864 193.632181,35.9152438 C195.317002,34.931339 196.813628,34.7531071 198.703677,35.3208685 C210.485253,38.8605064 222.309821,42.2582039 234.105998,45.749453 C241.133248,47.8293632 244.989597,52.8859888 244.99852,60.1378511 C245.011499,72.5285998 244.936059,84.9193485 244.891444,97.3100973 C244.877654,101.041677 243.263406,104.269208 240.383718,106.302342 C228.271992,114.852636 215.972073,123.141631 203.049168,132" id="Fill-48" fill="#FEC820"></path>
                <path d="M94,41.473225 C106.937695,35.0455198 117.635956,26.2127755 131.047609,22.7126279 C139.499195,20.5062589 147.950782,20.2841684 156.428118,22.9161436 C165.912113,25.8614686 175.470138,28.5685508 185,31.3798138 C184.938039,32.7155877 183.799413,32.8221912 183.059909,33.2566811 C170.054621,40.9038655 157.024388,48.5098622 144.019905,56.1594694 C142.678498,56.9476891 141.466645,57.2699223 139.888662,56.7393277 C124.915924,51.7120046 109.917436,46.756558 94,41.473225" id="Fill-50" fill="#FEC921"></path>
            </g>
        </g>
    </g>
</svg>