<?xml version="1.0" encoding="UTF-8"?>
<svg width="400px" height="400px" viewBox="0 0 400 400" version="1.1" xmlns="http://www.w3.org/2000/svg" xmlns:xlink="http://www.w3.org/1999/xlink">
    <title>img-slide-2</title>
    <defs>
        <polygon id="path-1" points="0 0 206.781406 0 206.781406 239.747231 0 239.747231"></polygon>
        <polygon id="path-3" points="0.132822852 0 10.0217368 0 10.0217368 15.1303614 0.132822852 15.1303614"></polygon>
    </defs>
    <g id="Page-1" stroke="none" stroke-width="1" fill="none" fill-rule="evenodd">
        <g id="img-slide-2">
            <rect id="Rectangle-Copy" fill="#FFFDFD" opacity="0" x="0" y="0" width="400" height="400"></rect>
            <g id="Group-2" transform="translate(97.000000, 54.000000)">
                <g id="Group-21" transform="translate(0.000000, 51.999998)">
                    <mask id="mask-2" fill="white">
                        <use xlink:href="#path-1"></use>
                    </mask>
                    <g id="Clip-20"></g>
                    <path d="M103.035987,24.1445029 C108.711731,24.1445029 114.386711,24.1329898 120.061692,24.1514107 C122.004519,24.1575511 124.365085,24.2972433 124.172635,21.6031782 C123.992404,19.0764369 126.262091,15.5419156 121.722718,14.2770098 C117.460564,13.0880905 113.115168,11.3595906 110.704962,7.59787755 C108.558229,4.24910093 105.974666,3.88528701 102.696145,4.12475947 C101.520062,4.2099564 100.329469,4.19230298 99.1510958,4.12399193 C97.8787882,4.05030809 96.9829798,4.3619293 96.2200535,5.55391877 C93.7609717,9.40082879 90.1059513,11.9490613 85.9232211,13.3329357 C82.4919619,14.4688948 81.5747702,16.2611005 81.7129981,19.7472668 C81.8504623,23.1973586 82.9837783,24.3425282 86.3676887,24.2051385 C91.9151329,23.9810169 97.4793783,24.1445029 103.035987,24.1445029 M103.250584,28.4557745 C98.1514255,28.4557745 93.0461578,28.598537 87.9546365,28.396674 C85.384056,28.2945912 84.2736507,28.983842 83.7833617,31.6786746 C83.2128853,34.8225181 82.5874232,37.7790818 78.3008311,38.9050629 C28.4418015,52.0092717 -2.50062657,100.020428 5.47076975,151.533869 C13.7361867,204.945436 64.2825373,242.343051 117.256658,234.241667 C162.922266,227.256286 196.972913,191.098249 201.484793,144.797939 C206.134138,97.0868905 176.19749,52.6125581 130.232515,39.580498 C125.186052,38.1498036 122.645255,35.9185651 122.177877,30.9901913 C121.975499,28.8418471 120.930771,28.348319 118.903174,28.4058845 C113.689462,28.5555547 108.468878,28.4557745 103.250584,28.4557745 M109.475421,-0.274779287 C110.145177,-0.121271305 111.092916,-0.33618248 111.362499,0.452848546 C113.692517,7.26323015 119.541619,9.33098266 125.581643,10.8959965 C128.023924,11.5284494 128.892239,12.5032251 128.641749,14.9969623 C128.222483,19.1577961 129.435223,23.4491117 126.293402,27.2944867 C124.662161,29.290858 127.400753,34.0695614 129.983552,34.8762459 C172.489011,48.158524 198.078736,76.8315123 205.215419,120.914399 C214.105534,175.826507 175.10694,229.099149 120.473321,238.045595 C62.5176497,247.53469 9.65960945,208.745526 0.833644014,150.249775 C-6.90329947,98.971201 25.6726616,48.7856041 75.6745012,34.9522323 C79.5257899,33.8868869 81.3372626,29.4405282 79.1554003,26.1915318 C76.2854532,21.9163345 77.9082945,17.1652625 77.6501672,12.6229613 C77.5829625,11.4455551 78.9408034,11.4586033 79.8007183,11.1446795 C85.6330189,9.02319916 91.5119046,6.97617022 94.0702661,0.422914489 C94.3688689,-0.342322799 95.3089713,-0.118968686 95.9794912,-0.274779287 C100.476862,-0.274779287 104.976523,-0.274779287 109.475421,-0.274779287" id="Fill-19" fill="#4D557C" mask="url(#mask-2)"></path>
                </g>
                <path d="M96.7199965,27.039999 C96.9935031,22.8562022 97.35694,18.6843039 98.402657,14.6046187 C101.699602,14.5897456 104.998033,14.5748725 108.29572,14.5599995 C109.339208,18.658276 109.768048,22.8517403 110.239996,27.0385117 C105.733825,27.0392554 101.226167,27.0392554 96.7199965,27.039999" id="Fill-22" fill="#FEB90C"></path>
                <path d="M96.3704622,27.0416004 C101.084756,27.0407997 105.800606,27.0407997 110.5149,27.039999 C110.904453,30.4949223 111.471288,33.9386361 111.216251,37.4399986 C106.037759,37.4343939 100.858489,37.4295898 95.6799965,37.4247858 C95.9101517,33.9634571 96.1403069,30.5021284 96.3704622,27.0416004" id="Fill-24" fill="#FEB202"></path>
                <g id="Group-28" transform="translate(97.759996, 0.000000)">
                    <mask id="mask-4" fill="white">
                        <use xlink:href="#path-3"></use>
                    </mask>
                    <g id="Clip-27"></g>
                    <path d="M10.0217368,15.0827814 C6.72567975,15.0991614 3.42887987,15.1139814 0.132822852,15.1303614 C0.352708558,10.5260216 1.51750852,6.15646177 3.16145131,1.91638193 C3.49573701,1.05292196 3.92139414,0.0053819998 4.98813696,-9.93656998e-05 C6.05859406,-0.0055379998 6.48127976,1.03654196 6.83636546,1.90312193 C8.55905111,6.11590178 9.65550822,10.5041816 10.0217368,15.0827814" id="Fill-26" fill="#FEC31B" mask="url(#mask-4)"></path>
                </g>
                <path d="M111.108131,40.5599985 C111.583834,42.706651 110.963118,44.7425831 110.562607,46.7999983 C105.619128,46.7297652 100.674115,46.6595322 95.7298686,46.5901254 C95.7137561,44.583939 95.6968763,42.5777527 95.6799965,40.5723926 C100.822964,40.5682612 105.965931,40.5641299 111.108131,40.5599985" id="Fill-29" fill="#FED477"></path>
                <path d="M94.8290043,46.7999983 C99.8677827,46.8658906 104.907343,46.9325673 109.945339,46.999244 C110.678793,48.8097131 109.893732,50.3966191 109.21345,51.9992137 C104.606299,51.9992137 99.9991475,51.9992137 95.3943421,51.9999981 C95.4999031,50.2342416 94.1573236,48.6269404 94.8290043,46.7999983" id="Fill-31" fill="#FEEFCD"></path>
                <path d="M111.272242,40.5499232 C106.075344,40.5532816 100.87767,40.5566401 95.6799965,40.5599985 C95.715666,39.5195508 95.7505602,38.4797747 95.7862297,37.4399986 C100.95056,37.4440288 106.115666,37.4487306 111.279996,37.4534324 C111.27767,38.4858199 111.274568,39.5175357 111.272242,40.5499232" id="Fill-33" fill="#FEBF31"></path>
                <path d="M99.1601953,192.596518 C99.1601953,199.84439 99.2738201,207.093791 99.0984262,214.337071 C99.036657,216.891273 99.8350809,217.785779 102.283733,217.424609 C103.095121,217.30524 103.951502,217.309831 104.765177,217.423844 C107.081903,217.75058 107.755263,216.838475 107.739249,214.49317 C107.635538,199.999723 107.755263,185.50398 107.627149,171.010533 C107.602747,168.28646 108.209,167.377415 111.099188,167.456995 C130.977427,167.998749 150.843465,168.558867 170.313723,173.234938 C174.687134,174.285543 178.940057,175.73022 182.964967,177.798526 C184.192725,178.429042 184.986574,179.123068 185.039192,180.731496 C185.661459,199.385276 182.805587,217.177453 172.419213,233.155367 C158.273307,254.918111 138.532332,268.113032 112.690698,270.879191 C81.6680768,274.197816 56.6141897,262.731457 37.7265451,237.972233 C26.9428653,223.834599 22.1668108,207.506993 21.8511016,189.798222 C21.832037,188.729252 21.8434758,187.659518 21.8427132,186.589784 C21.8399992,178.16046 21.826699,178.122966 29.9443902,175.234377 C40.510734,171.475003 51.5575048,170.103019 62.6202899,169.083022 C73.5786011,168.072972 84.5841925,167.681961 95.5935968,167.443222 C98.6637541,167.37665 99.3127119,168.330076 99.2280652,171.214074 C99.0191176,178.335689 99.1601953,185.468782 99.1601953,192.596518" id="Fill-35" fill="#FEC820"></path>
                <path d="M126.879995,94.6399965 C111.296388,97.4463156 95.6835823,97.3666122 80.0799971,94.6809869 C95.6743617,95.7361082 111.263348,95.8074617 126.879995,94.6399965" id="Fill-37" fill="#5D6488"></path>
            </g>
        </g>
    </g>
</svg>