<?xml version="1.0" encoding="UTF-8"?>
<svg width="400px" height="400px" viewBox="0 0 400 400" version="1.1" xmlns="http://www.w3.org/2000/svg" xmlns:xlink="http://www.w3.org/1999/xlink">
    <title>img-slide-1</title>
    <g id="Page-1" stroke="none" stroke-width="1" fill="none" fill-rule="evenodd">
        <g id="img-slide-1">
            <rect id="Rectangle" fill="#FFFDFD" opacity="0" x="0" y="0" width="400" height="400"></rect>
            <g id="Group" transform="translate(107.000000, 86.000000)">
                <path d="M92.1976349,256.587609 C97.5310915,256.587609 102.877197,256.820271 108.195772,256.543611 C124.307752,255.709157 140.290264,253.909003 155.702823,248.774014 C164.005098,246.00816 172.008259,242.60994 178.255427,236.145343 C181.977239,232.293728 183.103753,228.225857 180.799385,222.824648 C159.525083,172.961716 138.463585,123.009299 117.306102,73.0964037 C116.608169,71.4498666 116.260691,69.8376323 116.265155,68.053138 C116.304591,53.8659235 116.32468,39.6787091 116.251018,25.4922404 C116.239113,23.1245975 116.75103,21.1171346 117.950462,19.041066 C121.766026,12.4422402 120.222836,8.23193733 112.791117,6.29830017 C100.692623,3.15138585 88.4148094,3.15660585 76.3245003,6.33931445 C68.939657,8.2826459 67.4574799,12.4989145 71.3541473,19.1290603 C72.5766458,21.2096032 73.0625201,23.2260146 73.0513591,25.5884375 C72.9851374,39.4475377 72.9814171,53.3073835 73.0543354,67.1664837 C73.0669845,69.5259237 72.5811102,71.6437523 71.6324276,73.7787323 C49.4853384,123.620784 27.4074473,173.494156 5.17999919,223.300414 C3.37861828,227.33622 3.84440285,230.596483 6.27898292,233.947723 C7.63764526,235.817228 9.23515242,237.435428 11.0261164,238.876148 C17.231617,243.866468 24.3813357,247.0104 31.880765,249.389228 C51.5166354,255.617434 71.7916574,256.833694 92.1976349,256.587609 M91.6797658,261 C71.6160581,260.755406 51.1081438,259.582397 31.2364048,253.351954 C23.9378731,251.064103 16.9540808,248.079754 10.6868229,243.595774 C7.3809429,241.230368 4.42849373,238.508511 2.23945505,235.039448 C-0.321616029,230.982763 -0.750197361,226.914145 1.28630803,222.341425 C23.44307,172.599299 45.4919426,122.808701 67.6070369,73.0479323 C68.5586958,70.9062408 69.0601955,68.7928865 69.0482905,66.4341922 C68.9813246,52.8964949 68.9947178,39.3580519 69.0401057,25.8211004 C69.0468023,24.0157261 68.6554242,22.4512175 67.7893328,20.8546432 C62.9365421,11.9001059 65.4246948,5.16854301 75.1927777,2.52051156 C88.0241754,-0.958245623 101.031172,-0.683077049 113.961531,2.40641727 C114.802324,2.60701441 115.623771,2.9299087 116.419921,3.27517442 C123.387344,6.2997916 125.825644,11.8576002 122.440893,18.6562774 C120.594868,22.3639689 120.17596,25.9896318 120.201258,29.9352061 C120.278641,42.0538091 120.279385,54.1724121 120.187865,66.2902694 C120.169263,68.7623123 120.683412,70.9912523 121.631351,73.2283952 C142.368437,122.159184 162.955966,171.15485 183.91776,219.988697 C187.74523,228.905948 186.434187,234.307157 178.835053,241.014111 C170.540219,248.334788 160.334626,251.876186 149.862658,254.654717 C130.978293,259.665917 111.651209,260.743474 91.6797658,261" id="Fill-1" fill="#4E567D"></path>
                <path d="M23.3238166,224.536193 C21.3401591,221.94176 21.8508629,219.323511 23.125376,216.612231 C34.7120624,191.962139 46.2762838,167.303859 57.8337657,142.641114 C61.1121547,135.645225 61.101671,135.545496 68.8738043,136.327696 C72.5580606,136.698329 76.1996334,137.48946 79.8606758,138.090809 C88.930536,141.460744 98.0116286,144.996646 107.56823,146.545416 C113.591839,147.52112 119.74275,146.760503 125.141833,142.991653 C127.016161,141.683273 127.120997,139.164753 129.203501,138.204678 C133.948104,148.912111 138.682223,159.623265 143.446296,170.321023 C144.301463,172.241171 143.152005,172.230008 141.794371,172.227031 C134.563644,172.208425 127.328424,172.378112 120.106682,172.142931 C117.103115,172.044691 116.462863,172.953413 117.413132,175.550078 C117.52321,175.849264 117.526954,176.193105 117.547922,176.517595 C117.720153,179.21399 118.88309,180.251465 121.849216,180.153225 C129.618354,179.896461 137.40172,180.11378 145.179095,180.030425 C146.928368,180.011819 147.987966,180.367567 148.631213,182.170125 C149.606942,184.902988 150.906915,187.521237 152.215874,190.525004 C142.388944,190.525004 132.989598,190.634408 123.595493,190.458022 C120.790367,190.405181 120.187556,191.357813 120.818822,193.785535 C122.217641,199.166417 120.531271,198.317235 126.222398,198.355935 C135.094566,198.417708 143.96973,198.462362 152.840401,198.310537 C155.107117,198.271836 156.198915,199.023522 156.923785,201.055307 C157.826128,203.584247 159.002544,206.015691 160.206667,208.83042 C149.108219,208.83042 138.401411,208.771625 127.697598,208.915264 C126.514443,208.930893 124.063514,207.362027 124.049286,210.426823 C124.02757,215.017317 125.123112,216.671027 128.053294,216.674004 C138.35049,216.685911 148.647687,216.678469 158.944884,216.678469 C164.715388,216.678469 166.179355,218.901525 164.108833,224.516843 C163.91863,224.855474 163.729175,225.194849 163.538972,225.533479 L163.598878,225.703167 L163.471577,225.831921 C163.280624,226.093895 163.089672,226.355124 162.89872,226.616354 C162.89872,226.616354 162.979594,226.53672 162.978845,226.53672 C162.335598,226.710873 162.207547,227.217703 162.164864,227.777374 C161.630946,228.961466 160.714375,229.780878 159.616587,230.42837 C158.272432,230.165652 157.381321,231.056511 156.346435,231.645208 C154.359033,232.77497 152.40458,234.019345 150.295868,234.872248 C136.479158,240.454075 121.890402,242.27003 107.175093,242.724763 C93.7635014,243.139306 80.3054824,243.320158 66.938821,241.511646 C58.6275282,240.386349 50.474988,238.66417 42.4579865,236.098018 C38.3087052,234.769543 34.8393639,231.878156 30.419754,231.346766 L30.580753,231.311043 C30.580753,231.311043 30.4152611,231.318485 30.4175075,231.316252 C30.1351977,229.460109 28.8561916,229.042588 27.226732,229.129665 C25.8690985,228.182242 24.6312783,227.128394 23.9955194,225.537201 C23.7716185,225.203035 23.5477175,224.86887 23.3238166,224.536193" id="Fill-3" fill="#FEC81F"></path>
                <path d="M129,137.473084 C126.890487,138.411107 126.783494,140.871781 124.884933,142.15011 C119.413859,145.832396 113.180932,146.575543 107.076246,145.62225 C97.3922176,144.109051 88.1907971,140.654363 79,137.36183 C85.9242093,136.233294 92.310417,133.455582 98.9341346,131.402111 C105.008468,129.519521 111.252018,128.755287 117.62305,129.067961 C123.953105,129.379908 126.868482,131.574446 129,137.473084" id="Fill-5" fill="#FEB002"></path>
                <path d="M30,231.016521 C34.4136242,231.575863 37.87768,234.619339 42.0198921,236.017693 C50.0246796,238.718827 58.1647994,240.531595 66.4634298,241.7153 C79.8104746,243.619725 93.2472425,243.429361 106.638401,242.993011 C121.331291,242.514359 135.898569,240.6021 149.693481,234.726664 C151.799729,233.82968 153.751204,232.519849 155.735578,231.329878 C156.76814,230.710215 157.657893,229.773279 159,230.049816 C152.095815,236.392154 143.583344,239.000065 134.92657,240.941309 C114.874226,245.43876 94.5736476,245.744283 74.2162452,244.049023 C61.6467997,243.001629 49.2874556,240.811266 37.5943048,235.57116 C34.9056054,234.36552 32.1458752,233.239786 30,231.016521" id="Fill-7" fill="#FEB815"></path>
                <path d="M28,229.009768 C29.5323944,228.930511 30.7352113,229.310539 31,231 C29.7091549,230.741907 28.8323944,229.907337 28,229.009768" id="Fill-9" fill="#FEB815"></path>
                <path d="M161,228 C161.053358,227.54829 161.210672,227.139772 162,227 C161.666973,227.333533 161.333947,227.666467 161,228" id="Fill-11" fill="#FEB815"></path>
                <path d="M23.0515,224 C23.3505,224.332342 23.6495,224.666171 23.9485,225 C23.6505,224.666914 23.3515,224.333086 23.0515,224" id="Fill-13" fill="#FEB815"></path>
                <path d="M163.1195,225 C163.3735,224.666911 163.6265,224.333089 163.8805,224 C163.6265,224.333089 163.3735,224.666911 163.1195,225" id="Fill-15" fill="#FEB815"></path>
                <path d="M162.117,227 C162.372,226.666983 162.627,226.333966 162.883,226 C162.627,226.333966 162.372,226.666983 162.117,227" id="Fill-17" fill="#FEB815"></path>
            </g>
        </g>
    </g>
</svg>